<svg width="283" height="65" viewBox="0 0 283 65" fill="none" xmlns="http://www.w3.org/2000/svg">
<path d="M16.75 63.8906C15.0833 63.3698 13.5208 62.6146 12.0625 61.625C10.6042 60.6875 9.22396 59.6198 7.92188 58.4219C6.67188 57.224 5.5 55.9479 4.40625 54.5938C3.3125 53.1875 2.32292 51.7552 1.4375 50.2969C0.916667 49.4635 0.8125 48.6823 1.125 47.9531C1.4375 47.1719 1.93229 46.599 2.60938 46.2344C3.28646 45.8177 4.01562 45.6615 4.79688 45.7656C5.63021 45.8698 6.30729 46.3385 6.82812 47.1719C7.50521 48.2656 8.26042 49.3854 9.09375 50.5312C9.97917 51.6771 10.9427 52.7708 11.9844 53.8125C13.0781 54.8542 14.224 55.7656 15.4219 56.5469C16.6198 57.276 17.8698 57.7969 19.1719 58.1094C19.7448 58.2135 20.3177 58.2656 20.8906 58.2656C21.4635 58.2656 22.0625 58.1354 22.6875 57.875C23.2083 57.7188 23.625 57.4844 23.9375 57.1719C24.875 55.974 25.474 54.8542 25.7344 53.8125C26.0469 52.7708 26.2552 51.7552 26.3594 50.7656C26.6719 47.901 26.75 45.0365 26.5938 42.1719C26.4375 39.3073 26.2031 36.4427 25.8906 33.5781C25.526 30.349 25.2917 27.1198 25.1875 23.8906C25.0833 20.6615 24.7188 17.4583 24.0938 14.2812C21.5938 14.3854 19.1458 14.4115 16.75 14.3594C14.3542 14.2552 11.9062 13.9948 9.40625 13.5781C8.57292 13.4219 7.94792 12.9271 7.53125 12.0938C7.11458 11.2604 7.01042 10.4792 7.21875 9.75C7.47917 8.86458 7.97396 8.23958 8.70312 7.875C9.43229 7.51042 10.2396 7.40625 11.125 7.5625C13.8854 8.03125 16.6458 8.26562 19.4062 8.26562C22.1667 8.21354 24.9271 8.13542 27.6875 8.03125C30.5 7.92708 33.2865 7.875 36.0469 7.875C38.8073 7.875 41.5677 8.10938 44.3281 8.57812C45.2135 8.73438 45.8646 9.22917 46.2812 10.0625C46.6979 10.8958 46.776 11.6771 46.5156 12.4062C46.2552 13.2917 45.7604 13.9167 45.0312 14.2812C44.3542 14.6458 43.5729 14.75 42.6875 14.5938C40.6562 14.2292 38.599 14.0208 36.5156 13.9688C34.4844 13.9167 32.4271 13.9427 30.3438 14.0469C30.7604 16.3906 31.0208 18.7344 31.125 21.0781C31.2812 23.3698 31.4375 25.6875 31.5938 28.0312C31.6979 29.3854 31.8021 30.7135 31.9062 32.0156C32.0625 33.2656 32.2188 34.5677 32.375 35.9219C32.6354 39.0469 32.8177 42.25 32.9219 45.5312C33.0781 48.8125 32.7135 51.9896 31.8281 55.0625C31.4635 56.4688 30.9167 57.8229 30.1875 59.125C29.4583 60.4271 28.4948 61.5208 27.2969 62.4062C25.7865 63.4479 24.0938 64.099 22.2188 64.3594C20.3438 64.6198 18.5208 64.4635 16.75 63.8906ZM42.9219 39.75C42.349 34.5417 41.9583 29.3854 41.75 24.2812C41.5417 19.125 41.151 13.9688 40.5781 8.8125C40.474 7.92708 40.7604 7.19792 41.4375 6.625C42.1667 6 42.9219 5.6875 43.7031 5.6875C44.6406 5.6875 45.3698 6 45.8906 6.625C46.4115 7.19792 46.724 7.92708 46.8281 8.8125C47.1927 11.9375 47.4531 15.0365 47.6094 18.1094C47.8177 21.1302 48 24.2031 48.1562 27.3281C48.3646 31.8594 48.7552 36.4427 49.3281 41.0781C49.3802 41.651 49.4323 42.3021 49.4844 43.0312C49.5885 43.7604 49.6667 44.3073 49.7188 44.6719C49.8229 45.401 49.9271 46.1042 50.0312 46.7812C50.1875 47.4583 50.3438 48.1354 50.5 48.8125C50.8125 50.1146 51.151 51.3125 51.5156 52.4062C51.9323 53.4479 52.5312 54.3333 53.3125 55.0625L54.0156 55.4531C54.4323 55.5573 54.7969 55.6094 55.1094 55.6094C55.474 55.5573 55.9948 55.4271 56.6719 55.2188C57.401 54.9583 58.026 54.6458 58.5469 54.2812C59.9531 53.3438 61.151 52.1719 62.1406 50.7656C63.1302 49.3594 63.9896 47.901 64.7188 46.3906C65.5521 44.724 66.2812 43.0052 66.9062 41.2344C67.5312 39.4635 68.0521 37.6667 68.4688 35.8438C69.5104 31.2604 69.9531 26.651 69.7969 22.0156C69.6927 17.3802 69.3542 12.7708 68.7812 8.1875C68.6771 7.35417 68.9635 6.625 69.6406 6C70.3698 5.375 71.099 5.0625 71.8281 5.0625C72.7656 5.0625 73.4948 5.375 74.0156 6C74.5365 6.625 74.849 7.35417 74.9531 8.1875C75.6302 13.1875 75.9948 18.2656 76.0469 23.4219C76.099 28.526 75.474 33.526 74.1719 38.4219C73.7031 40.1927 73.1562 42.0156 72.5312 43.8906C71.9062 45.7656 71.151 47.5885 70.2656 49.3594C69.4323 51.0781 68.4427 52.7448 67.2969 54.3594C66.151 55.9219 64.849 57.276 63.3906 58.4219C61.9323 59.5677 60.3177 60.4792 58.5469 61.1562C56.776 61.8333 54.9792 61.9896 53.1562 61.625C51.75 61.3646 50.474 60.7656 49.3281 59.8281C48.2344 58.8385 47.349 57.7448 46.6719 56.5469C45.3177 53.9427 44.4323 51.2083 44.0156 48.3438C43.599 45.4271 43.2344 42.5625 42.9219 39.75ZM90.6562 62.3281C89.0938 61.3385 87.6875 60.1146 86.4375 58.6562C85.1875 57.1979 84.0938 55.6094 83.1562 53.8906C82.2188 52.1719 81.4375 50.401 80.8125 48.5781C80.1875 46.7552 79.7188 44.9323 79.4062 43.1094C79.0938 41.3906 78.9115 39.6458 78.8594 37.875C78.8073 36.0521 79.0417 34.2812 79.5625 32.5625C79.9792 31.2083 80.526 29.9062 81.2031 28.6562C81.9323 27.4062 82.7135 26.2083 83.5469 25.0625C85.5781 22.25 87.8438 19.5938 90.3438 17.0938C92.8438 14.5938 95.5781 12.4062 98.5469 10.5312C99.901 9.64583 101.307 8.86458 102.766 8.1875C104.276 7.51042 105.786 7.01562 107.297 6.70312C108.859 6.39062 110.422 6.3125 111.984 6.46875C113.547 6.57292 115.109 6.98958 116.672 7.71875C117.453 8.08333 117.948 8.70833 118.156 9.59375C118.365 10.4792 118.26 11.2604 117.844 11.9375C117.375 12.7188 116.724 13.1875 115.891 13.3438C115.109 13.5 114.328 13.3958 113.547 13.0312C112.661 12.6146 111.542 12.4583 110.188 12.5625C109.667 12.5625 109.016 12.6667 108.234 12.875C107.505 13.0312 106.776 13.2656 106.047 13.5781C104.536 14.151 103.026 14.9583 101.516 16C100.057 16.9896 98.6771 18.0312 97.375 19.125C95.0833 21.1042 92.9219 23.2656 90.8906 25.6094C88.9115 27.901 87.2448 30.401 85.8906 33.1094C85.7344 33.474 85.5781 34.0208 85.4219 34.75C85.2656 35.4792 85.1615 36.1042 85.1094 36.625C85.0052 38.1354 85.0833 39.6198 85.3438 41.0781C85.6562 42.7969 86.0729 44.5156 86.5938 46.2344C87.1667 47.901 87.8958 49.4896 88.7812 51C89.6146 52.4062 90.5781 53.8125 91.6719 55.2188C92.8177 56.5729 94.224 57.4583 95.8906 57.875C97.6615 58.3438 99.4844 58.2396 101.359 57.5625C101.776 57.4062 102.167 57.25 102.531 57.0938C102.896 56.8854 103.286 56.6771 103.703 56.4688C103.859 56.3646 104.016 56.2604 104.172 56.1562C104.328 56.0521 104.484 55.9479 104.641 55.8438C105.839 54.8021 106.906 53.7083 107.844 52.5625C108.781 51.4167 109.667 50.2188 110.5 48.9688C110.917 48.2396 111.333 47.5104 111.75 46.7812C112.219 46 112.583 45.2448 112.844 44.5156C113.104 43.8385 113.312 43.2396 113.469 42.7188C113.625 42.1458 113.703 41.5729 113.703 41C113.182 40.7917 112.661 40.6875 112.141 40.6875C111.62 40.6875 111.073 40.6875 110.5 40.6875C109.042 40.7396 107.583 40.8438 106.125 41C104.719 41.1562 103.26 41.2344 101.75 41.2344C100.76 41.2344 100.005 40.9219 99.4844 40.2969C99.0156 39.6198 98.7812 38.8906 98.7812 38.1094C98.7812 37.3281 99.0156 36.625 99.4844 36C100.005 35.375 100.76 35.0625 101.75 35.0625C103.156 35.0625 104.562 34.9844 105.969 34.8281C107.375 34.6719 108.781 34.5677 110.188 34.5156C111.594 34.4635 112.974 34.5156 114.328 34.6719C115.682 34.8281 117.036 35.1927 118.391 35.7656C119.745 36.2865 120.891 37.224 121.828 38.5781C122.401 39.4635 122.635 40.4531 122.531 41.5469C122.479 42.6406 122.453 43.7083 122.453 44.75C122.349 46.9896 122.271 49.2292 122.219 51.4688C122.219 53.6562 122.193 55.8438 122.141 58.0312C122.141 59.0729 121.802 59.8542 121.125 60.375C120.448 60.8438 119.719 61.0781 118.938 61.0781C118.156 61.0781 117.453 60.8438 116.828 60.375C116.203 59.8542 115.891 59.0729 115.891 58.0312C115.943 56.9896 115.969 55.9479 115.969 54.9062C115.969 53.8646 115.995 52.8229 116.047 51.7812C114.536 54.1771 112.844 56.3906 110.969 58.4219C109.719 59.776 108.26 60.9219 106.594 61.8594C104.927 62.849 103.182 63.5521 101.359 63.9688C99.5885 64.3854 97.7656 64.4896 95.8906 64.2812C94.0156 64.0729 92.2708 63.4219 90.6562 62.3281ZM137.531 62.3281C135.969 61.3385 134.562 60.1146 133.312 58.6562C132.062 57.1979 130.969 55.6094 130.031 53.8906C129.094 52.1719 128.312 50.401 127.688 48.5781C127.062 46.7552 126.594 44.9323 126.281 43.1094C125.969 41.3906 125.786 39.6458 125.734 37.875C125.682 36.0521 125.917 34.2812 126.438 32.5625C126.854 31.2083 127.401 29.9062 128.078 28.6562C128.807 27.4062 129.589 26.2083 130.422 25.0625C132.453 22.25 134.719 19.5938 137.219 17.0938C139.719 14.5938 142.453 12.4062 145.422 10.5312C146.776 9.64583 148.182 8.86458 149.641 8.1875C151.151 7.51042 152.661 7.01562 154.172 6.70312C155.734 6.39062 157.297 6.3125 158.859 6.46875C160.422 6.57292 161.984 6.98958 163.547 7.71875C164.328 8.08333 164.823 8.70833 165.031 9.59375C165.24 10.4792 165.135 11.2604 164.719 11.9375C164.25 12.7188 163.599 13.1875 162.766 13.3438C161.984 13.5 161.203 13.3958 160.422 13.0312C159.536 12.6146 158.417 12.4583 157.062 12.5625C156.542 12.5625 155.891 12.6667 155.109 12.875C154.38 13.0312 153.651 13.2656 152.922 13.5781C151.411 14.151 149.901 14.9583 148.391 16C146.932 16.9896 145.552 18.0312 144.25 19.125C141.958 21.1042 139.797 23.2656 137.766 25.6094C135.786 27.901 134.12 30.401 132.766 33.1094C132.609 33.474 132.453 34.0208 132.297 34.75C132.141 35.4792 132.036 36.1042 131.984 36.625C131.88 38.1354 131.958 39.6198 132.219 41.0781C132.531 42.7969 132.948 44.5156 133.469 46.2344C134.042 47.901 134.771 49.4896 135.656 51C136.49 52.4062 137.453 53.8125 138.547 55.2188C139.693 56.5729 141.099 57.4583 142.766 57.875C144.536 58.3438 146.359 58.2396 148.234 57.5625C148.651 57.4062 149.042 57.25 149.406 57.0938C149.771 56.8854 150.161 56.6771 150.578 56.4688C150.734 56.3646 150.891 56.2604 151.047 56.1562C151.203 56.0521 151.359 55.9479 151.516 55.8438C152.714 54.8021 153.781 53.7083 154.719 52.5625C155.656 51.4167 156.542 50.2188 157.375 48.9688C157.792 48.2396 158.208 47.5104 158.625 46.7812C159.094 46 159.458 45.2448 159.719 44.5156C159.979 43.8385 160.188 43.2396 160.344 42.7188C160.5 42.1458 160.578 41.5729 160.578 41C160.057 40.7917 159.536 40.6875 159.016 40.6875C158.495 40.6875 157.948 40.6875 157.375 40.6875C155.917 40.7396 154.458 40.8438 153 41C151.594 41.1562 150.135 41.2344 148.625 41.2344C147.635 41.2344 146.88 40.9219 146.359 40.2969C145.891 39.6198 145.656 38.8906 145.656 38.1094C145.656 37.3281 145.891 36.625 146.359 36C146.88 35.375 147.635 35.0625 148.625 35.0625C150.031 35.0625 151.438 34.9844 152.844 34.8281C154.25 34.6719 155.656 34.5677 157.062 34.5156C158.469 34.4635 159.849 34.5156 161.203 34.6719C162.557 34.8281 163.911 35.1927 165.266 35.7656C166.62 36.2865 167.766 37.224 168.703 38.5781C169.276 39.4635 169.51 40.4531 169.406 41.5469C169.354 42.6406 169.328 43.7083 169.328 44.75C169.224 46.9896 169.146 49.2292 169.094 51.4688C169.094 53.6562 169.068 55.8438 169.016 58.0312C169.016 59.0729 168.677 59.8542 168 60.375C167.323 60.8438 166.594 61.0781 165.812 61.0781C165.031 61.0781 164.328 60.8438 163.703 60.375C163.078 59.8542 162.766 59.0729 162.766 58.0312C162.818 56.9896 162.844 55.9479 162.844 54.9062C162.844 53.8646 162.87 52.8229 162.922 51.7812C161.411 54.1771 159.719 56.3906 157.844 58.4219C156.594 59.776 155.135 60.9219 153.469 61.8594C151.802 62.849 150.057 63.5521 148.234 63.9688C146.464 64.3854 144.641 64.4896 142.766 64.2812C140.891 64.0729 139.146 63.4219 137.531 62.3281ZM178.859 61.625C178.026 61.625 177.349 61.4167 176.828 61C176.359 60.5312 176.047 60.0104 175.891 59.4375C175.734 58.8125 175.734 58.1875 175.891 57.5625C176.099 56.9375 176.464 56.4167 176.984 56C177.401 54.2292 177.505 52.4583 177.297 50.6875C177.089 48.8646 176.88 47.0677 176.672 45.2969C176.411 43.1094 176.333 40.974 176.438 38.8906C176.542 36.7552 176.75 34.5938 177.062 32.4062C177.375 30.2188 177.714 28.0573 178.078 25.9219C178.443 23.7344 178.755 21.5469 179.016 19.3594C179.276 17.0156 179.484 14.6979 179.641 12.4062C179.849 10.1146 180.005 7.79688 180.109 5.45312C180.109 4.46354 180.448 3.70833 181.125 3.1875C181.802 2.66667 182.531 2.40625 183.312 2.40625C184.094 2.40625 184.797 2.66667 185.422 3.1875C186.047 3.70833 186.333 4.46354 186.281 5.45312C186.177 7.90104 186.021 10.3229 185.812 12.7188C185.656 15.1146 185.448 17.5625 185.188 20.0625C184.927 22.3542 184.589 24.5938 184.172 26.7812C183.807 28.9688 183.469 31.2083 183.156 33.5C182.844 35.6875 182.688 37.849 182.688 39.9844C182.688 42.0677 182.818 44.2031 183.078 46.3906C183.234 47.901 183.365 49.4115 183.469 50.9219C183.625 52.4323 183.599 53.9427 183.391 55.4531C187.297 55.5573 191.203 55.7656 195.109 56.0781C199.016 56.3385 202.922 56.5469 206.828 56.7031C207.818 56.7552 208.547 57.1198 209.016 57.7969C209.536 58.474 209.797 59.2031 209.797 59.9844C209.797 60.7656 209.536 61.4688 209.016 62.0938C208.547 62.7188 207.818 63.0052 206.828 62.9531C202.089 62.7448 197.401 62.4583 192.766 62.0938C188.182 61.7812 183.547 61.625 178.859 61.625ZM210.188 13.9688C209.146 13.6562 208.521 12.9792 208.312 11.9375C208.052 11.2083 208.13 10.4271 208.547 9.59375C208.964 8.70833 209.615 8.21354 210.5 8.10938C215.552 7.32812 220.604 6.91146 225.656 6.85938C230.76 6.75521 235.865 6.67708 240.969 6.625C241.958 6.625 242.714 6.9375 243.234 7.5625C243.755 8.1875 244.016 8.89062 244.016 9.67188C244.016 10.4531 243.755 11.1823 243.234 11.8594C242.714 12.4844 241.958 12.7969 240.969 12.7969C236.906 12.901 232.818 12.9531 228.703 12.9531C224.589 12.9531 220.474 13.1615 216.359 13.5781C216.464 15.6615 216.594 17.7448 216.75 19.8281C216.906 21.8594 217.062 23.9167 217.219 26C221.177 25.7917 225.109 25.5312 229.016 25.2188C232.974 24.9062 236.932 24.8542 240.891 25.0625C241.88 25.1146 242.635 25.4792 243.156 26.1562C243.677 26.8333 243.938 27.5625 243.938 28.3438C243.938 29.125 243.677 29.8281 243.156 30.4531C242.635 31.0781 241.88 31.3646 240.891 31.3125C236.984 31.1042 233.104 31.1562 229.25 31.4688C225.448 31.7812 221.594 32.0417 217.688 32.25C218 36 218.286 39.75 218.547 43.5C218.859 47.1979 219.068 50.9219 219.172 54.6719C220.995 54.2552 222.844 53.8646 224.719 53.5C226.594 53.0833 228.469 52.7708 230.344 52.5625C232.219 52.3021 234.094 52.1719 235.969 52.1719C237.844 52.1719 239.719 52.3281 241.594 52.6406C242.427 52.7969 243.052 53.2917 243.469 54.125C243.885 54.9583 243.99 55.7396 243.781 56.4688C243.521 57.3542 243.026 57.9792 242.297 58.3438C241.568 58.7083 240.76 58.8125 239.875 58.6562C238.208 58.3438 236.516 58.2396 234.797 58.3438C233.078 58.4479 231.385 58.6302 229.719 58.8906C227.792 59.2031 225.865 59.5677 223.938 59.9844C222.062 60.401 220.188 60.8438 218.312 61.3125C217.427 61.5208 216.594 61.3646 215.812 60.8438C215.083 60.7396 214.432 60.4531 213.859 59.9844C213.286 59.5156 213 58.8125 213 57.875C212.896 53.4479 212.688 49.0729 212.375 44.75C212.115 40.4271 211.802 36.0781 211.438 31.7031C210.865 31.1302 210.526 30.4271 210.422 29.5938C210.37 28.7083 210.604 27.9531 211.125 27.3281C210.708 22.901 210.396 18.4479 210.188 13.9688ZM281.125 59.0469C280.708 59.776 280.057 60.2708 279.172 60.5312C278.339 60.7917 277.557 60.6615 276.828 60.1406C275.422 59.099 274.068 58.0312 272.766 56.9375C271.464 55.7917 270.057 54.776 268.547 53.8906C267.193 53.0573 265.839 52.3021 264.484 51.625C263.13 50.8958 261.828 50.0625 260.578 49.125C259.068 47.9792 257.661 46.7292 256.359 45.375C256.307 47.9792 256.333 50.5833 256.438 53.1875C256.542 55.7396 256.698 58.3177 256.906 60.9219C257.01 61.8073 256.724 62.5365 256.047 63.1094C255.37 63.7344 254.641 64.0469 253.859 64.0469C252.922 64.0469 252.193 63.7344 251.672 63.1094C251.151 62.5365 250.839 61.8073 250.734 60.9219C250.422 57.1719 250.24 53.5 250.188 49.9062C250.135 46.2604 250.214 42.5885 250.422 38.8906C250.005 38.3177 249.589 37.7448 249.172 37.1719C248.755 36.5469 248.365 35.9219 248 35.2969C247.688 34.6719 247.557 34.0729 247.609 33.5C247.714 32.9271 247.922 32.4323 248.234 32.0156C248.599 31.599 249.016 31.2604 249.484 31C250.005 30.7396 250.552 30.6354 251.125 30.6875C251.229 29.4896 251.359 28.2917 251.516 27.0938C251.672 25.8438 251.828 24.6198 251.984 23.4219C252.141 22.5885 252.271 21.7812 252.375 21C252.531 20.1667 252.661 19.3333 252.766 18.5C252.87 18.0833 252.922 17.6927 252.922 17.3281C252.974 16.9635 253.052 16.5729 253.156 16.1562C253.156 15.9479 253.208 15.6875 253.312 15.375C253.365 14.6979 253.391 14.0469 253.391 13.4219C253.391 12.7448 253.417 12.0677 253.469 11.3906C253.521 10.5573 253.599 9.67188 253.703 8.73438C253.859 7.74479 254.068 6.80729 254.328 5.92188C254.641 4.98438 255.057 4.125 255.578 3.34375C256.099 2.5625 256.802 1.96354 257.688 1.54688C258.521 1.18229 259.354 0.973958 260.188 0.921875C261.073 0.869792 261.932 0.921875 262.766 1.07812C263.651 1.23438 264.51 1.46875 265.344 1.78125C266.177 2.04167 266.984 2.32812 267.766 2.64062C269.589 3.31771 271.385 4.09896 273.156 4.98438C274.979 5.81771 276.594 6.91146 278 8.26562C279.354 9.61979 280.526 11.2344 281.516 13.1094C282.505 14.9323 282.948 16.8333 282.844 18.8125C282.74 20.0104 282.479 21.0781 282.062 22.0156C281.698 22.901 281.177 23.8125 280.5 24.75C278.833 27.0938 277.036 29.3333 275.109 31.4688C273.182 33.6042 271.125 35.5573 268.938 37.3281C267.896 38.1615 266.75 38.9948 265.5 39.8281C264.302 40.6615 263.026 41.3646 261.672 41.9375C262.141 42.3542 262.609 42.7708 263.078 43.1875C263.547 43.6042 264.042 43.9688 264.562 44.2812C265.917 45.1667 267.271 46 268.625 46.7812C270.031 47.5104 271.385 48.3177 272.688 49.2031C273.938 50.0885 275.161 51.026 276.359 52.0156C277.557 53.0052 278.755 53.9427 279.953 54.8281C280.682 55.2969 281.151 55.9219 281.359 56.7031C281.62 57.4844 281.542 58.2656 281.125 59.0469ZM260.031 35.8438C261.281 35.1667 262.401 34.4635 263.391 33.7344C264.432 32.9531 265.448 32.1198 266.438 31.2344C267.479 30.2969 268.495 29.3073 269.484 28.2656C270.474 27.224 271.438 26.1823 272.375 25.1406C272.74 24.6719 273.078 24.2552 273.391 23.8906C273.703 23.526 273.99 23.1875 274.25 22.875C274.51 22.5104 274.771 22.1458 275.031 21.7812C275.344 21.3646 275.656 20.8958 275.969 20.375C276.073 20.2188 276.177 20.0625 276.281 19.9062C276.385 19.75 276.49 19.5938 276.594 19.4375C276.646 17.9792 276.333 16.625 275.656 15.375C274.771 13.8646 273.651 12.6406 272.297 11.7031C270.995 10.7656 269.536 9.98438 267.922 9.35938C266.984 8.94271 266.047 8.57812 265.109 8.26562C264.172 7.95312 263.182 7.66667 262.141 7.40625C261.88 7.30208 261.49 7.19792 260.969 7.09375C260.656 7.19792 260.448 7.35417 260.344 7.5625C260.135 8.23958 260.031 8.70833 260.031 8.96875C259.979 9.125 259.901 9.41146 259.797 9.82812C259.745 10.349 259.693 10.7656 259.641 11.0781C259.641 11.3385 259.641 11.625 259.641 11.9375C259.484 15.5312 259.094 19.0729 258.469 22.5625C257.896 26.0521 257.427 29.5938 257.062 33.1875C256.958 33.7604 256.88 34.3594 256.828 34.9844C256.828 35.5573 256.802 36.1302 256.75 36.7031C257.219 36.7552 257.479 36.7552 257.531 36.7031C258.104 36.599 258.547 36.4948 258.859 36.3906C259.224 36.2344 259.615 36.0521 260.031 35.8438Z" fill="black"/>
</svg>
